<svg width="64" height="64" viewBox="0 0 64 64" fill="none" xmlns="http://www.w3.org/2000/svg">
<rect opacity="0.1" width="64" height="64" fill="#D9D9D9"/>
<path d="M17.3787 17C18.8229 17 19.9264 17.1635 20.6894 17.4905C21.4523 17.8174 22.1199 18.1717 22.6921 18.5531C23.0191 18.7439 23.2779 18.8937 23.4686 19.0027C23.6866 19.0845 23.891 19.1253 24.0817 19.1253C24.3542 19.1253 24.5449 18.9755 24.6539 18.6757C24.7902 18.376 24.8992 17.9264 24.9809 17.327H25.921C25.8937 17.8174 25.8528 18.4033 25.7983 19.0845C25.7711 19.7384 25.7438 20.6104 25.7166 21.7003C25.7166 22.7902 25.7166 24.2207 25.7166 25.9918H24.7765C24.6948 24.6567 24.3951 23.3624 23.8774 22.109C23.3869 20.8556 22.6512 19.8338 21.6703 19.0436C20.7166 18.2534 19.4905 17.8583 17.9918 17.8583C16.6022 17.8583 15.4441 18.2807 14.5177 19.1253C13.6185 19.9428 13.1689 21.0327 13.1689 22.3951C13.1689 23.594 13.4687 24.6022 14.0681 25.4196C14.6676 26.2098 15.485 26.9591 16.5204 27.6676C17.5831 28.3488 18.782 29.1117 20.1172 29.9564C21.4795 30.8283 22.7057 31.7003 23.7956 32.5722C24.8855 33.4169 25.7439 34.3569 26.3706 35.3924C26.9973 36.4278 27.3106 37.6812 27.3106 39.1526C27.3106 40.9237 26.8883 42.3951 26.0436 43.5668C25.2261 44.7112 24.1226 45.5695 22.733 46.1417C21.3433 46.7139 19.8174 47 18.1553 47C16.6294 47 15.4169 46.8365 14.5177 46.5095C13.6185 46.1826 12.8556 45.842 12.2289 45.4877C11.6294 45.1063 11.1662 44.9155 10.8392 44.9155C10.5668 44.9155 10.3624 45.0654 10.2262 45.3651C10.1172 45.6648 10.0218 46.1144 9.94005 46.7139H9C9.0545 46.1144 9.08174 45.4196 9.08174 44.6294C9.10899 43.812 9.12262 42.7493 9.12262 41.4414C9.14986 40.1335 9.16349 38.485 9.16349 36.4959H10.1035C10.2125 38.1853 10.5123 39.7657 11.0027 41.2371C11.5204 42.7084 12.297 43.8937 13.3324 44.7929C14.3951 45.6648 15.7984 46.1008 17.5422 46.1008C18.4687 46.1008 19.327 45.9237 20.1172 45.5695C20.9073 45.2153 21.5477 44.6567 22.0381 43.8937C22.5286 43.1308 22.7738 42.1499 22.7738 40.951C22.7738 39.8338 22.5013 38.8529 21.9564 38.0082C21.4387 37.1635 20.703 36.3869 19.7493 35.6785C18.8229 34.9428 17.733 34.1935 16.4796 33.4305C15.1989 32.6131 14 31.7956 12.8828 30.9782C11.7657 30.1608 10.8665 29.2071 10.1853 28.1172C9.53133 27.0272 9.20436 25.733 9.20436 24.2343C9.20436 22.5722 9.58583 21.2098 10.3488 20.1471C11.139 19.0845 12.1471 18.2943 13.3733 17.7766C14.6267 17.2589 15.9618 17 17.3787 17Z" fill="#2E2A35"/>
<path d="M42.3514 46.9179C39.6538 46.9179 37.2969 46.3049 35.2806 45.0787C33.2642 43.8525 31.6975 42.1359 30.5803 39.9288C29.4631 37.7218 28.9045 35.1468 28.9045 32.204C28.9045 29.2885 29.4631 26.7136 30.5803 24.4792C31.7247 22.2449 33.346 20.501 35.444 19.2476C37.5694 17.967 40.0762 17.3267 42.9645 17.3267C46.207 17.3267 48.9181 18.1169 51.098 19.6972C53.2778 21.2504 54.6811 23.4166 55.3078 26.1959H50.6484C50.2397 24.6155 49.3814 23.3757 48.0735 22.4765C46.7656 21.5501 45.0489 21.0869 42.9236 21.0869C40.9073 21.0869 39.1498 21.5365 37.6511 22.4357C36.1797 23.3348 35.0489 24.6155 34.2588 26.2776C33.4686 27.9397 33.0735 29.9152 33.0735 32.204C33.0735 34.5201 33.4686 36.5092 34.2588 38.1713C35.0489 39.8335 36.1661 41.1005 37.6103 41.9724C39.0544 42.8444 40.7165 43.2803 42.5966 43.2803C45.4849 43.2803 47.6511 42.4493 49.0953 40.7871C50.5666 39.125 51.4249 36.9043 51.6702 34.125H43.7819V30.9779H55.7982V46.4275H52.0789L51.7111 42.0542C51.0571 43.1168 50.2942 44.016 49.4222 44.7517C48.5775 45.4602 47.583 46.0051 46.4386 46.3866C45.2942 46.7408 43.9318 46.9179 42.3514 46.9179Z" fill="#2E2A35"/>
</svg>
